<svg class="svg-icon" style="width: 1em; height: 1em;vertical-align: middle;fill: currentColor;overflow: hidden;" viewBox="0 0 1024 1024" version="1.1" xmlns="http://www.w3.org/2000/svg"><path d="M758.826667 660.096l102.549333 262.058667h-54.421333l-24.085334-63.296h-107.584l-22.784 63.296h-54.464l102.549334-262.058667h58.24z m-29.12 40.512h-1.258667c0 1.706667-0.874667 5.056-2.538667 10.133333-1.706667 6.762667-2.965333 11.392-3.797333 13.930667-0.832 1.706667-12.245333 33.770667-34.176 96.213333h84.8c-22.784-63.296-34.581333-95.765333-35.413333-97.472a175.936 175.936 0 0 1-7.616-22.805333z m160.789333 221.568V660.096h50.624v262.058667h-50.624z m-378.517333-29.482667c-207.850667 0-376.96-170.773333-376.96-380.693333 0-209.877333 169.109333-380.650667 376.96-380.650667 207.872 0 376.981333 170.752 376.981333 380.650667a34.176 34.176 0 0 0 68.309333 0c0-247.530667-199.744-448.938667-445.269333-448.938667S66.730667 264.469333 66.730667 512c0 247.552 199.722667 448.96 445.248 448.96a34.133333 34.133333 0 0 0 0-68.266667z m190.762666-461.525333l-245.269333-139.136c-15.658667-8.704-31.317333-13.909333-46.101333-13.909333-33.045333 0-67.84 24.341333-67.84 78.272v279.146666c0 54.826667 33.898667 78.293333 67.84 78.293334 14.784 0 30.442667-4.330667 46.101333-13.909334l245.269333-139.157333c27.84-15.616 44.352-39.082667 44.352-64.341333 0.021333-26.090667-16.512-49.6-44.352-65.258667" fill="#347DFF" /></svg>