<svg xmlns="http://www.w3.org/2000/svg" xmlns:xlink="http://www.w3.org/1999/xlink" version="1.1" x="0px" y="0px" viewBox="0 0 64 80" enable-background="new 0 0 64 64" xml:space="preserve"><g><path fill="#000000" d="M42.8,21.2c-6-6-15.7-6-21.6,0c-6,6-6,15.7,0,21.6c6,6,15.7,6,21.6,0C48.8,36.8,48.8,27.2,42.8,21.2z    M39.2,38.6c0.2,0.2,0.2,0.5,0,0.7c-0.1,0.1-0.2,0.1-0.3,0.1s-0.2,0-0.3-0.1L32,32.7l-6.6,6.6c-0.1,0.1-0.2,0.1-0.3,0.1   s-0.2,0-0.3-0.1c-0.2-0.2-0.2-0.5,0-0.7l6.6-6.6l-6.6-6.6c-0.2-0.2-0.2-0.5,0-0.7c0.2-0.2,0.5-0.2,0.7,0l6.6,6.6l6.6-6.6   c0.2-0.2,0.5-0.2,0.7,0c0.2,0.2,0.2,0.5,0,0.7L32.7,32L39.2,38.6z"/></g></svg>