<svg width="15" height="15" viewBox="0 0 15 15" fill="none" xmlns="http://www.w3.org/2000/svg">
<path d="M14.7802 13.719C14.8499 13.7887 14.9052 13.8714 14.9429 13.9625C14.9806 14.0535 15 14.1511 15 14.2496C15 14.3482 14.9806 14.4457 14.9429 14.5368C14.9052 14.6278 14.8499 14.7105 14.7802 14.7802C14.7105 14.8499 14.6278 14.9052 14.5368 14.9429C14.4457 14.9806 14.3482 15 14.2496 15C14.1511 15 14.0535 14.9806 13.9625 14.9429C13.8714 14.9052 13.7887 14.8499 13.719 14.7802L7.5 8.56025L1.28097 14.7802C1.14025 14.9209 0.949387 15 0.750375 15C0.551363 15 0.360502 14.9209 0.21978 14.7802C0.0790571 14.6395 3.923e-09 14.4486 0 14.2496C-3.923e-09 14.0506 0.0790571 13.8598 0.21978 13.719L6.43975 7.5L0.21978 1.28097C0.0790571 1.14025 -1.48275e-09 0.949387 0 0.750375C1.48275e-09 0.551363 0.0790571 0.360502 0.21978 0.21978C0.360502 0.0790571 0.551363 1.48275e-09 0.750375 0C0.949387 -1.48275e-09 1.14025 0.0790571 1.28097 0.21978L7.5 6.43975L13.719 0.21978C13.8598 0.0790571 14.0506 -3.923e-09 14.2496 0C14.4486 3.923e-09 14.6395 0.0790571 14.7802 0.21978C14.9209 0.360502 15 0.551363 15 0.750375C15 0.949387 14.9209 1.14025 14.7802 1.28097L8.56025 7.5L14.7802 13.719Z" fill="black"/>
</svg>
