<?xml version="1.0" standalone="no"?>
<!DOCTYPE svg PUBLIC "-//W3C//DTD SVG 20010904//EN"
 "http://www.w3.org/TR/2001/REC-SVG-20010904/DTD/svg10.dtd">
<svg version="1.0" xmlns="http://www.w3.org/2000/svg"
 width="512.000000pt" height="512.000000pt" viewBox="0 0 512.000000 512.000000"
 preserveAspectRatio="xMidYMid meet">

<g transform="translate(0.000000,512.000000) scale(0.100000,-0.100000)"
fill="#ffffff" stroke="none">
<path d="M2520 5114 c-200 -37 -262 -56 -375 -112 -292 -144 -499 -399 -588
-722 -35 -127 -38 -203 -35 -1069 l3 -855 1065 1018 c586 560 1071 1024 1078
1030 9 9 3 29 -31 97 -153 305 -434 522 -771 595 -70 15 -297 27 -346 18z"/>
<path d="M2494 2879 c-1006 -963 -1853 -1774 -1882 -1802 l-52 -52 113 -113
113 -113 1780 1702 c978 936 1828 1749 1887 1807 l109 105 -108 108 c-60 60
-114 109 -120 109 -6 0 -834 -788 -1840 -1751z"/>
<path d="M2935 2453 c-451 -431 -855 -819 -898 -862 l-79 -78 83 -53 c104 -67
213 -114 337 -147 82 -22 120 -26 247 -27 217 -2 350 30 535 126 288 149 498
425 576 758 14 64 18 142 21 515 2 242 3 465 1 496 l-3 56 -820 -784z"/>
<path d="M886 2053 c17 -76 27 -113 46 -173 11 -36 23 -67 25 -70 8 -8 243
235 243 252 0 16 -14 18 -160 18 l-160 0 6 -27z"/>
<path d="M4051 1983 c-37 -121 -105 -262 -179 -373 -64 -95 -245 -284 -337
-351 -401 -291 -897 -373 -1351 -223 -95 31 -258 108 -334 157 l-55 36 -112
-111 c-62 -61 -110 -115 -108 -118 9 -15 153 -106 238 -151 184 -96 388 -163
580 -190 l87 -12 0 -163 0 -162 -109 -4 c-92 -2 -114 -6 -137 -24 -53 -39 -69
-71 -69 -134 0 -63 16 -95 69 -134 26 -20 42 -21 392 -24 407 -3 410 -3 462
66 39 51 39 133 0 184 -41 54 -81 68 -192 68 l-96 0 0 164 0 164 58 7 c528 64
1015 373 1304 825 89 139 181 353 214 500 8 36 17 73 20 83 5 16 -7 17 -155
17 l-159 0 -31 -97z"/>
</g>
</svg>
