<?xml version="1.0" standalone="no"?>
<!DOCTYPE svg PUBLIC "-//W3C//DTD SVG 20010904//EN"
 "http://www.w3.org/TR/2001/REC-SVG-20010904/DTD/svg10.dtd">
<svg version="1.0" xmlns="http://www.w3.org/2000/svg"
 width="512.000000pt" height="512.000000pt" viewBox="0 0 512.000000 512.000000"
 preserveAspectRatio="xMidYMid meet">

<g transform="translate(0.000000,512.000000) scale(0.100000,-0.100000)"
fill="#000000" stroke="none">
<path d="M2371 5110 c-316 -66 -590 -298 -710 -601 -68 -173 -66 -136 -66
-1244 0 -1119 -2 -1078 72 -1255 125 -296 386 -515 698 -586 108 -25 301 -25
410 0 383 86 684 397 757 782 10 54 13 287 13 1064 0 1117 3 1071 -74 1255
-112 268 -320 461 -601 556 -92 32 -102 33 -275 35 -99 2 -200 -1 -224 -6z
m394 -314 c236 -82 397 -253 456 -484 18 -72 19 -119 19 -1041 0 -1077 2
-1043 -69 -1186 -244 -493 -940 -501 -1196 -13 -20 37 -44 102 -55 144 -19 74
-20 115 -20 1049 0 928 1 975 19 1047 62 242 252 433 487 493 81 20 290 15
359 -9z"/>
<path d="M990 2511 c-76 -40 -91 -104 -69 -299 55 -503 326 -949 744 -1222
200 -130 475 -232 693 -255 l62 -7 0 -203 0 -204 -302 -3 c-284 -3 -305 -4
-338 -24 -104 -61 -107 -202 -4 -261 l39 -23 755 0 755 0 39 23 c103 59 100
200 -4 261 -33 20 -54 21 -337 24 l-303 3 0 204 0 203 63 7 c235 25 536 143
747 293 122 86 306 270 392 392 77 108 184 317 222 435 41 127 65 249 78 401
11 138 11 141 -11 187 -54 111 -202 116 -264 9 -14 -25 -22 -64 -28 -150 -16
-242 -84 -454 -201 -638 -241 -375 -619 -602 -1051 -633 -619 -43 -1178 330
-1380 919 -36 106 -57 217 -67 353 -9 131 -23 167 -80 204 -41 28 -102 30
-150 4z"/>
</g>
</svg>
