<?xml version="1.0" standalone="no"?>
<!DOCTYPE svg PUBLIC "-//W3C//DTD SVG 20010904//EN"
 "http://www.w3.org/TR/2001/REC-SVG-20010904/DTD/svg10.dtd">
<svg version="1.0" xmlns="http://www.w3.org/2000/svg"
 width="512.000000pt" height="512.000000pt" viewBox="0 0 512.000000 512.000000"
 preserveAspectRatio="xMidYMid meet">

<g transform="translate(0.000000,512.000000) scale(0.100000,-0.100000)"
fill="#000000" stroke="none">
<path d="M2245 5111 c-50 -13 -112 -49 -151 -88 -65 -64 -81 -117 -111 -354
-14 -118 -31 -219 -36 -226 -5 -7 -25 -17 -45 -23 -20 -7 -83 -32 -140 -57
l-103 -46 -37 30 c-173 137 -304 234 -342 253 -61 31 -159 38 -236 15 -57 -16
-67 -25 -291 -248 -223 -224 -232 -234 -248 -291 -23 -78 -16 -175 15 -236 13
-25 77 -115 143 -200 66 -85 125 -161 130 -167 6 -9 -5 -46 -36 -115 -25 -57
-50 -120 -57 -140 -6 -20 -16 -40 -23 -45 -7 -5 -109 -22 -227 -37 -238 -30
-289 -46 -353 -110 -21 -20 -49 -60 -65 -89 l-27 -52 0 -320 0 -320 26 -56
c15 -31 43 -73 64 -94 66 -66 118 -82 356 -112 118 -14 219 -31 226 -36 7 -5
17 -25 23 -45 7 -20 32 -83 57 -140 31 -69 42 -106 36 -115 -5 -6 -64 -82
-130 -167 -66 -85 -130 -175 -143 -200 -31 -62 -38 -158 -15 -236 16 -56 26
-68 233 -277 259 -261 275 -272 407 -272 76 0 97 4 135 24 35 19 172 121 368
274 8 7 36 -1 90 -26 42 -19 108 -46 145 -58 49 -17 69 -30 72 -44 2 -11 16
-112 30 -225 28 -227 45 -279 110 -345 21 -21 63 -49 94 -64 l56 -26 315 0
315 0 56 26 c31 15 73 43 94 64 66 67 82 118 112 356 14 118 31 219 37 225 6
6 45 24 86 39 41 15 102 41 135 58 70 35 47 46 250 -113 83 -64 170 -127 195
-140 62 -31 158 -38 236 -15 56 16 68 26 277 233 261 259 272 275 272 407 0
113 -8 128 -168 335 -66 85 -125 161 -130 167 -6 9 5 46 36 115 25 57 50 120
57 140 6 20 16 40 23 45 7 5 108 22 226 36 238 30 287 45 355 112 21 21 51 64
65 94 l26 56 0 315 0 315 -26 56 c-15 31 -43 73 -64 94 -66 66 -118 82 -356
112 -118 14 -219 31 -226 36 -7 5 -17 25 -23 45 -7 20 -32 83 -57 140 -31 69
-42 106 -36 115 5 6 64 82 130 167 66 85 130 175 143 200 31 61 38 158 15 236
-16 57 -25 67 -248 291 -224 223 -234 232 -291 248 -78 23 -175 16 -236 -15
-25 -13 -112 -76 -195 -140 -203 -159 -180 -148 -250 -113 -33 17 -94 43 -135
58 -41 15 -80 33 -86 39 -6 6 -23 107 -37 225 -30 238 -46 289 -112 356 -21
21 -63 49 -94 64 l-56 26 -300 2 c-165 1 -313 -2 -330 -6z m425 -1491 c124
-14 229 -44 335 -94 238 -112 409 -283 520 -519 192 -407 102 -894 -223 -1209
-322 -311 -790 -392 -1188 -204 -121 58 -203 114 -296 204 -325 315 -415 802
-223 1209 176 372 538 609 950 622 22 0 78 -4 125 -9z"/>
</g>
</svg>
