<?xml version="1.0" standalone="no"?>
<!DOCTYPE svg PUBLIC "-//W3C//DTD SVG 20010904//EN"
 "http://www.w3.org/TR/2001/REC-SVG-20010904/DTD/svg10.dtd">
<svg version="1.0" xmlns="http://www.w3.org/2000/svg"
 width="1080.000000pt" height="1080.000000pt" viewBox="0 0 1080.000000 1080.000000"
 preserveAspectRatio="xMidYMid meet">

<g transform="translate(0.000000,1080.000000) scale(0.100000,-0.100000)"
fill="#000000" stroke="none">
<path d="M6712 9479 c-23 -12 -60 -42 -83 -67 -47 -54 -282 -519 -359 -712
l-50 -125 -257 -1 c-237 0 -275 -3 -468 -32 -277 -41 -318 -43 -345 -11 -21
25 -89 132 -133 209 -81 143 -512 661 -574 689 -58 26 -158 7 -202 -40 -82
-86 -323 -736 -381 -1024 -17 -83 -41 -169 -53 -192 -12 -23 -63 -95 -114
-160 -85 -110 -229 -313 -361 -508 -29 -44 -74 -117 -99 -163 -50 -92 -40 -87
-193 -103 -334 -34 -487 -116 -536 -286 -26 -89 -2 -193 44 -193 26 0 62 42
62 71 0 51 32 131 67 170 66 73 157 106 321 116 l103 6 -21 -52 c-25 -63 -41
-96 -140 -281 -132 -245 -299 -694 -399 -1075 -28 -104 -53 -199 -57 -210 -3
-11 -33 -42 -66 -69 -49 -40 -67 -63 -95 -122 -56 -123 -113 -303 -113 -362 0
-40 -8 -69 -34 -120 -18 -37 -58 -128 -89 -202 -131 -320 -216 -594 -306 -985
-171 -743 -255 -1313 -277 -1873 l-7 -172 65 0 65 0 7 167 c17 412 87 958 186
1458 107 542 223 957 369 1323 43 108 85 216 91 240 7 23 16 42 20 42 17 0 80
-57 125 -114 57 -73 367 -352 559 -505 380 -301 692 -472 1161 -635 149 -51
286 -97 305 -101 19 -4 55 -17 80 -28 43 -19 44 -20 20 -27 -14 -5 -44 -8 -68
-9 -64 -1 -102 -25 -102 -64 0 -38 50 -45 385 -51 1028 -21 1339 -41 1715
-107 327 -57 599 -154 753 -268 123 -90 217 -231 217 -323 0 -144 -143 -248
-509 -368 -410 -135 -855 -204 -1751 -270 -151 -11 -368 -32 -481 -45 -476
-58 -663 -52 -836 26 -105 47 -273 175 -382 291 -88 95 -151 122 -198 85 -23
-17 26 -85 112 -155 44 -37 115 -99 158 -138 133 -125 253 -194 403 -236 119
-33 356 -31 609 5 211 29 412 49 740 72 866 62 1410 147 1729 272 386 151 529
284 513 479 -10 131 -121 290 -291 418 -147 111 -261 156 -551 216 -169 36
-282 73 -250 83 11 3 81 13 155 22 256 30 355 46 485 80 187 48 254 73 420
160 81 42 149 74 152 71 2 -2 11 -37 20 -78 51 -247 197 -561 366 -787 69 -92
467 -512 537 -567 19 -15 150 -164 290 -330 l255 -303 73 0 c56 -1 71 2 66 12
-37 64 -286 379 -368 466 -34 35 -97 95 -141 134 -44 39 -200 196 -348 350
l-267 278 22 42 c40 72 167 189 255 234 138 72 224 93 667 168 490 82 1076
214 1265 285 397 150 477 356 232 600 -91 90 -187 147 -343 201 -204 72 -492
103 -958 103 -246 0 -286 -3 -555 -37 -328 -42 -445 -53 -445 -43 0 16 48 98
137 235 104 160 242 431 298 585 48 130 101 325 125 461 43 236 49 527 15 690
-21 99 -20 113 25 252 56 174 74 311 67 498 -9 217 -38 335 -91 370 -21 14
-39 14 -177 -1 -99 -10 -183 -13 -237 -9 -75 6 -84 9 -99 33 -87 140 -388 427
-587 561 -40 27 -85 64 -100 82 -41 48 -94 160 -185 389 -203 509 -417 848
-590 933 -68 33 -130 35 -189 6z m167 -115 c41 -21 67 -46 123 -118 100 -128
171 -239 233 -364 45 -90 189 -443 289 -709 31 -81 43 -93 185 -193 114 -80
229 -177 341 -291 47 -47 97 -93 112 -103 29 -19 72 -96 60 -108 -4 -4 -263
-12 -577 -17 -313 -6 -730 -18 -925 -26 -195 -8 -476 -19 -625 -25 -458 -19
-1490 -68 -2123 -101 -331 -18 -605 -30 -608 -26 -3 3 3 25 13 49 28 63 297
469 423 638 59 80 118 165 130 189 12 23 34 104 50 180 20 101 57 216 140 446
61 171 130 361 152 423 l41 112 47 0 c27 0 56 -3 65 -6 8 -4 40 -39 70 -78 29
-40 64 -78 77 -85 13 -7 57 -58 98 -113 41 -55 116 -154 166 -219 49 -66 121
-172 160 -236 38 -64 82 -135 98 -156 l28 -40 102 7 c55 4 193 19 306 33 166
22 248 27 430 27 321 1 510 -26 900 -130 226 -60 288 -66 321 -33 19 19 21 29
15 80 -7 68 -58 232 -127 409 -95 240 -162 289 -260 188 -46 -47 -145 -244
-185 -365 -26 -80 -28 -83 -58 -83 -49 0 -155 19 -192 35 l-33 14 16 48 c9 26
45 104 80 173 35 69 89 184 120 255 73 172 117 255 156 295 56 57 89 62 166
24z m34 -498 c10 -8 23 -31 29 -52 5 -22 32 -95 58 -164 42 -109 78 -245 68
-255 -5 -5 -348 81 -355 89 -17 16 101 310 147 369 24 31 28 32 53 13z m171
-1548 c2 -7 9 -56 15 -108 16 -141 53 -257 135 -425 158 -322 330 -481 594
-552 90 -25 113 -27 312 -27 l215 -1 92 32 c50 18 138 55 193 83 56 28 105 49
108 45 11 -11 21 -138 21 -270 3 -520 -188 -1067 -554 -1590 -102 -146 -330
-429 -429 -533 -181 -190 -374 -267 -781 -314 -233 -27 -728 -14 -1045 28
-952 125 -2113 585 -2940 1167 -91 64 -436 324 -473 357 -11 10 56 287 125
515 116 391 276 812 395 1040 40 77 100 195 134 263 l62 122 41 0 c23 0 277
14 566 30 289 16 543 30 566 30 l40 0 13 -106 c27 -222 104 -454 193 -588 54
-80 210 -235 287 -285 183 -118 398 -155 664 -116 117 18 301 77 408 131 255
128 429 327 490 560 14 56 23 136 30 279 5 110 13 203 17 207 9 9 286 32 440
36 43 1 64 -2 66 -10z m-4613 -2180 c24 -17 89 -71 144 -119 284 -246 659
-489 1120 -725 548 -280 961 -435 1570 -587 565 -142 953 -191 1408 -179 243
6 235 -13 -23 -52 -350 -55 -1084 -65 -1450 -21 -494 59 -862 147 -1242 297
-180 71 -474 221 -612 311 -163 107 -683 524 -726 582 -19 26 -62 70 -95 97
-104 87 -214 238 -215 296 0 42 47 132 70 132 4 0 27 -14 51 -32z m7428 -792
c284 -44 500 -129 624 -245 154 -143 129 -279 -70 -379 -157 -80 -515 -172
-1018 -262 -517 -92 -735 -133 -820 -155 -179 -45 -295 -114 -433 -259 -45
-48 -88 -86 -93 -84 -14 5 -168 298 -214 407 -47 112 -75 218 -82 316 l-6 80
83 64 c127 98 264 246 357 387 l33 50 143 22 c440 67 639 81 1052 77 249 -2
368 -7 444 -19z"/>
<path d="M4477 9002 c-72 -79 -180 -768 -138 -876 11 -29 12 -29 74 -23 34 3
109 22 167 42 58 19 148 47 200 61 110 30 155 51 190 89 l25 27 -33 29 c-23
21 -39 28 -56 23 -28 -7 -28 -7 -115 150 -85 152 -140 234 -197 296 l-41 45
10 61 c6 34 7 68 4 77 -9 23 -69 22 -90 -1z m158 -427 c24 -38 60 -105 81
-148 42 -89 41 -93 -36 -126 -54 -23 -219 -65 -227 -57 -7 6 15 279 27 335 6
25 17 66 26 89 l16 44 35 -34 c19 -18 54 -64 78 -103z"/>
<path d="M7144 6639 c-11 -18 -7 -59 16 -168 12 -56 20 -104 18 -106 -2 -3
-22 4 -44 15 -28 14 -52 40 -83 90 -34 53 -53 72 -78 81 -19 6 -40 9 -47 6 -8
-3 -17 -42 -25 -106 -7 -56 -19 -124 -27 -151 -12 -41 -19 -50 -38 -50 -13 0
-35 9 -49 20 -40 32 -50 79 -42 191 8 117 0 139 -50 139 -53 0 -70 -34 -70
-135 1 -162 68 -291 170 -330 66 -26 103 -4 171 100 l53 82 71 -36 c70 -34 73
-35 112 -20 62 22 80 62 75 169 -4 90 -27 160 -66 199 -23 23 -56 28 -67 10z"/>
</g>
</svg>
